<svg width="198" height="197" viewBox="0 0 198 197" fill="none" xmlns="http://www.w3.org/2000/svg">
<path d="M160.017 189.854H37.1586C33.3576 189.854 30.2646 186.761 30.2646 182.96V13.319C30.2646 9.51805 33.3576 6.42505 37.1586 6.42505H160.017C163.819 6.42505 166.911 9.51805 166.911 13.319V182.96C166.911 186.761 163.819 189.854 160.017 189.854ZM37.1586 10.425C35.5626 10.425 34.2646 11.723 34.2646 13.319V182.96C34.2646 184.556 35.5626 185.854 37.1586 185.854H160.017C161.614 185.854 162.911 184.556 162.911 182.96V13.319C162.911 11.723 161.614 10.425 160.017 10.425H37.1586Z" fill="white"/>
<path d="M143.784 53.562H53.3878C49.4798 53.562 46.2988 50.382 46.2988 46.473V33.237C46.2988 29.328 49.4798 26.147 53.3878 26.147H143.784C147.693 26.147 150.873 29.328 150.873 33.237V46.473C150.873 50.382 147.693 53.562 143.784 53.562ZM53.3878 30.146C51.6848 30.146 50.2988 31.532 50.2988 33.236V46.472C50.2988 48.175 51.6848 49.561 53.3878 49.561H143.784C145.487 49.561 146.873 48.175 146.873 46.472V33.237C146.873 31.533 145.487 30.147 143.784 30.147L53.3878 30.146Z" fill="white"/>
<path d="M72.4028 99.2071H48.2998C47.1948 99.2071 46.2998 98.3111 46.2998 97.2071V74.9241C46.2998 73.8191 47.1948 72.9241 48.2998 72.9241H72.4028C73.5068 72.9241 74.4028 73.8191 74.4028 74.9241V97.2061C74.4028 98.3111 73.5068 99.2071 72.4028 99.2071ZM50.2998 95.2071H70.4028V76.9241H50.2998V95.2071Z" fill="white"/>
<path d="M110.64 99.2071H86.5371C85.4331 99.2071 84.5371 98.3111 84.5371 97.2071V74.9241C84.5371 73.8191 85.4331 72.9241 86.5371 72.9241H110.641C111.745 72.9241 112.641 73.8191 112.641 74.9241V97.2061C112.64 98.3111 111.744 99.2071 110.64 99.2071ZM88.5371 95.2071H108.641V76.9241H88.5371V95.2071Z" fill="white"/>
<path d="M148.876 99.2071H124.773C123.669 99.2071 122.773 98.3111 122.773 97.2071V74.9241C122.773 73.8191 123.669 72.9241 124.773 72.9241H148.876C149.981 72.9241 150.876 73.8191 150.876 74.9241V97.2061C150.876 98.3111 149.982 99.2071 148.876 99.2071ZM126.774 95.2071H146.877V76.9241H126.774V95.2071Z" fill="white"/>
<path d="M72.4028 134.667H48.2998C47.1948 134.667 46.2998 133.771 46.2998 132.667V110.385C46.2998 109.281 47.1948 108.385 48.2998 108.385H72.4028C73.5068 108.385 74.4028 109.281 74.4028 110.385V132.667C74.4028 133.771 73.5068 134.667 72.4028 134.667ZM50.2998 130.667H70.4028V112.386H50.2998V130.667Z" fill="white"/>
<path d="M110.64 134.667H86.5371C85.4331 134.667 84.5371 133.771 84.5371 132.667V110.385C84.5371 109.281 85.4331 108.385 86.5371 108.385H110.641C111.745 108.385 112.641 109.281 112.641 110.385V132.667C112.64 133.771 111.744 134.667 110.64 134.667ZM88.5371 130.667H108.641V112.386H88.5371V130.667Z" fill="white"/>
<path d="M148.873 170.132H124.777C123.673 170.132 122.777 169.236 122.777 168.132V110.388C122.777 109.284 123.673 108.388 124.777 108.388H148.873C149.978 108.388 150.873 109.284 150.873 110.388V168.132C150.873 169.236 149.978 170.132 148.873 170.132ZM126.777 166.132H146.873V112.39H126.777V166.132Z" fill="white"/>
<path d="M72.4028 170.129H48.2998C47.1948 170.129 46.2998 169.233 46.2998 168.129V145.847C46.2998 144.743 47.1948 143.847 48.2998 143.847H72.4028C73.5068 143.847 74.4028 144.743 74.4028 145.847V168.129C74.4028 169.233 73.5068 170.129 72.4028 170.129ZM50.2998 166.129H70.4028V147.848H50.2998V166.129Z" fill="white"/>
<path d="M110.64 170.129H86.5371C85.4331 170.129 84.5371 169.233 84.5371 168.129V145.847C84.5371 144.743 85.4331 143.847 86.5371 143.847H110.641C111.745 143.847 112.641 144.743 112.641 145.847V168.129C112.64 169.233 111.744 170.129 110.64 170.129ZM88.5371 166.129H108.641V147.848H88.5371V166.129Z" fill="white"/>
</svg>
