<svg width="511" height="511" viewBox="0 0 511 511" fill="none" xmlns="http://www.w3.org/2000/svg">
<g clip-path="url(#clip0_445_2)">
<path d="M503.5 0H209.5C207.529 0 205.588 0.804 204.195 2.198L114.198 92.195C112.804 93.588 112 95.529 112 97.5V136H7.5C3.358 136 0 139.358 0 143.5V248C0 252.142 3.358 255.5 7.5 255.5C11.642 255.5 15 252.142 15 248V151H240V440H15V284C15 279.858 11.642 276.5 7.5 276.5C3.358 276.5 0 279.857 0 284V447.5C0 451.642 3.358 455 7.5 455H112V503.5C112 507.642 115.358 511 119.5 511H503.5C507.642 511 511 507.642 511 503.5V7.5C511 3.358 507.642 0 503.5 0ZM202 25.606V90H137.606L202 25.606ZM496 496H127V455H247.5C251.642 455 255 451.642 255 447.5V143.5C255 139.358 251.642 136 247.5 136H127V105H209.5C213.642 105 217 101.642 217 97.5V15H496V496Z" fill="white"/>
<path d="M393.5 256H375.5C366.402 256 359 248.598 359 239.5C359 228.748 350.252 220 339.5 220C328.748 220 320 228.748 320 239.5C320 267.561 340.93 290.824 368 294.495V307.5C368 318.252 376.748 327 387.5 327C398.252 327 407 318.252 407 307.5V293.502C434.792 287.303 455 262.596 455 233.5C455 199.589 427.411 172 393.5 172H381.5C369.093 172 359 161.907 359 149.5C359 137.093 369.093 127 381.5 127H399.5C408.598 127 416 134.402 416 143.5V155.5C416 166.252 424.748 175 435.5 175C446.252 175 455 166.252 455 155.5V143.5C455 115.439 434.07 92.176 407 88.505V75.5C407 64.748 398.252 56 387.5 56C376.748 56 368 64.748 368 75.5V89.498C340.208 95.697 320 120.404 320 149.5C320 183.411 347.589 211 381.5 211H393.5C405.907 211 416 221.093 416 233.5C416 245.907 405.907 256 393.5 256ZM393.5 196H381.5C355.86 196 335 175.14 335 149.5C335 125.776 352.767 105.913 376.328 103.295C380.126 102.873 383 99.663 383 95.841V75.5C383 73.019 385.019 71 387.5 71C389.981 71 392 73.019 392 75.5V95.5C392 99.642 395.358 103 399.5 103C421.832 103 440 121.168 440 143.5V155.5C440 157.981 437.981 160 435.5 160C433.019 160 431 157.981 431 155.5V143.5C431 126.131 416.869 112 399.5 112H381.5C360.822 112 344 128.822 344 149.5C344 170.178 360.822 187 381.5 187H393.5C419.14 187 440 207.86 440 233.5C440 257.224 422.233 277.087 398.672 279.705C394.874 280.127 392 283.337 392 287.159V307.5C392 309.981 389.981 312 387.5 312C385.019 312 383 309.981 383 307.5V287.5C383 283.358 379.642 280 375.5 280C353.168 280 335 261.832 335 239.5C335 237.019 337.019 235 339.5 235C341.981 235 344 237.019 344 239.5C344 256.869 358.131 271 375.5 271H393.5C414.178 271 431 254.178 431 233.5C431 212.822 414.178 196 393.5 196Z" fill="white"/>
<path d="M295.5 375H351.5C355.642 375 359 371.642 359 367.5C359 363.358 355.642 360 351.5 360H295.5C291.358 360 288 363.358 288 367.5C288 371.642 291.358 375 295.5 375Z" fill="white"/>
<path d="M376 367.5C376 371.642 379.358 375 383.5 375H463.5C467.642 375 471 371.642 471 367.5C471 363.358 467.642 360 463.5 360H383.5C379.358 360 376 363.358 376 367.5Z" fill="white"/>
<path d="M295.5 415H327.5C331.642 415 335 411.642 335 407.5C335 403.358 331.642 400 327.5 400H295.5C291.358 400 288 403.358 288 407.5C288 411.642 291.358 415 295.5 415Z" fill="white"/>
<path d="M463.5 400H359.5C355.358 400 352 403.358 352 407.5C352 411.642 355.358 415 359.5 415H463.5C467.642 415 471 411.642 471 407.5C471 403.358 467.642 400 463.5 400Z" fill="white"/>
<path d="M295.5 455H375.5C379.642 455 383 451.642 383 447.5C383 443.358 379.642 440 375.5 440H295.5C291.358 440 288 443.358 288 447.5C288 451.642 291.358 455 295.5 455Z" fill="white"/>
<path d="M463.5 440H407.5C403.358 440 400 443.358 400 447.5C400 451.642 403.358 455 407.5 455H463.5C467.642 455 471 451.642 471 447.5C471 443.358 467.642 440 463.5 440Z" fill="white"/>
<path d="M223 175.5C223 171.358 219.642 168 215.5 168H39.5C35.358 168 32 171.358 32 175.5V223.5C32 227.642 35.358 231 39.5 231H215.5C219.642 231 223 227.642 223 223.5V175.5ZM208 216H47V183H208V216Z" fill="white"/>
<path d="M223 255.5C223 251.358 219.642 248 215.5 248H151.5C147.358 248 144 251.358 144 255.5V319.5C144 323.642 147.358 327 151.5 327H215.5C219.642 327 223 323.642 223 319.5V255.5ZM208 312H159V263H208V312Z" fill="white"/>
<path d="M32 319.5C32 323.642 35.358 327 39.5 327H103.5C107.642 327 111 323.642 111 319.5V255.5C111 251.358 107.642 248 103.5 248H39.5C35.358 248 32 251.358 32 255.5V319.5ZM47 263H96V312H47V263Z" fill="white"/>
<path d="M215.5 344H151.5C147.358 344 144 347.358 144 351.5V415.5C144 419.642 147.358 423 151.5 423H215.5C219.642 423 223 419.642 223 415.5V351.5C223 347.358 219.642 344 215.5 344ZM208 408H159V359H208V408Z" fill="white"/>
<path d="M32 415.5C32 419.642 35.358 423 39.5 423H103.5C107.642 423 111 419.642 111 415.5V351.5C111 347.358 107.642 344 103.5 344H39.5C35.358 344 32 347.358 32 351.5V415.5ZM47 359H96V408H47V359Z" fill="white"/>
<path d="M79.5 280H79V279.5C79 275.358 75.642 272 71.5 272C67.358 272 64 275.358 64 279.5V280H63.5C59.358 280 56 283.358 56 287.5C56 291.642 59.358 295 63.5 295H64V295.5C64 299.642 67.358 303 71.5 303C75.642 303 79 299.642 79 295.5V295H79.5C83.642 295 87 291.642 87 287.5C87 283.358 83.642 280 79.5 280Z" fill="white"/>
<path d="M175.5 295H191.5C195.642 295 199 291.642 199 287.5C199 283.358 195.642 280 191.5 280H175.5C171.358 280 168 283.358 168 287.5C168 291.642 171.358 295 175.5 295Z" fill="white"/>
<path d="M84.8028 370.197C81.8738 367.268 77.1248 367.268 74.1968 370.197L71.4998 372.894L68.8028 370.197C65.8738 367.268 61.1247 367.268 58.1967 370.197C55.2678 373.126 55.2678 377.875 58.1967 380.803L60.8938 383.5L58.1967 386.197C55.2678 389.126 55.2678 393.875 58.1967 396.803C59.6607 398.268 61.5808 399 63.4998 399C65.4188 399 67.3388 398.268 68.8028 396.803L71.4998 394.106L74.1968 396.803C75.6608 398.268 77.5808 399 79.4998 399C81.4188 399 83.3388 398.268 84.8028 396.803C87.7318 393.874 87.7318 389.125 84.8028 386.197L82.1058 383.5L84.8028 380.803C87.7318 377.875 87.7318 373.125 84.8028 370.197Z" fill="white"/>
<path d="M175.5 399C177.419 399 179.339 398.268 180.803 396.803L196.803 380.803C199.732 377.874 199.732 373.125 196.803 370.197C193.874 367.268 189.125 367.268 186.197 370.197L170.197 386.197C165.576 390.816 168.941 399 175.5 399Z" fill="white"/>
</g>
<defs>
<clipPath id="clip0_445_2">
<rect width="511" height="511" fill="white"/>
</clipPath>
</defs>
</svg>
