<svg width="128" height="128" viewBox="0 0 128 128" fill="none" xmlns="http://www.w3.org/2000/svg">
<path d="M115.685 1.72925H24.3063C23.2589 1.72941 22.2218 1.93586 21.2542 2.33681C20.2867 2.73777 19.4076 3.32538 18.6671 4.06609C17.9266 4.8068 17.3393 5.68611 16.9386 6.65381C16.538 7.62151 16.3319 8.65865 16.332 9.70601V18.5563H9.94196C8.45593 18.5563 7.03076 19.1467 5.97998 20.1975C4.92919 21.2482 4.33887 22.6734 4.33887 24.1594C4.33887 25.6455 4.92919 27.0706 5.97998 28.1214C7.03076 29.1722 8.45593 29.7625 9.94196 29.7625H16.332V58.3969H9.94196C8.45593 58.3969 7.03076 58.9872 5.97998 60.038C4.92919 61.0888 4.33887 62.514 4.33887 64C4.33887 65.486 4.92919 66.9112 5.97998 67.962C7.03076 69.0128 8.45593 69.6031 9.94196 69.6031H16.332V98.2375H9.94196C8.45593 98.2375 7.03076 98.8278 5.97998 99.8786C4.92919 100.929 4.33887 102.355 4.33887 103.841C4.33887 105.327 4.92919 106.752 5.97998 107.803C7.03076 108.853 8.45593 109.444 9.94196 109.444H16.332V118.297C16.3322 120.411 17.1724 122.44 18.6678 123.935C20.1632 125.43 22.1914 126.271 24.3063 126.271H115.685C116.732 126.271 117.77 126.065 118.737 125.664C119.705 125.264 120.584 124.676 121.325 123.936C122.066 123.195 122.653 122.316 123.054 121.349C123.455 120.381 123.662 119.344 123.662 118.297V9.70601C123.662 8.65846 123.456 7.62115 123.055 6.65332C122.654 5.68549 122.066 4.80609 121.326 4.06536C120.585 3.32463 119.706 2.73707 118.738 2.33624C117.77 1.93541 116.733 1.72915 115.685 1.72925ZM37.5754 100.71C37.6725 95.1115 38.0935 89.5228 38.836 83.9725C39.0123 82.9431 39.4283 81.9697 40.0504 81.1308C40.6724 80.2919 41.4831 79.6112 42.4169 79.1436C48.6491 76.0364 62.3258 71.4495 62.3258 71.4495V66.934L61.9463 66.6488C59.2924 64.6164 57.5164 61.6458 56.9825 58.346L56.9061 57.8621H56.5343C55.5329 57.8611 54.5546 57.5622 53.7237 57.0035C52.8928 56.4447 52.2469 55.6513 51.8684 54.7243C51.4156 53.9085 51.1781 52.9908 51.1782 52.0578C51.1781 51.4166 51.3 50.7814 51.5373 50.1858C51.6556 49.534 52.0181 48.9519 52.5509 48.5583L53.8116 47.7943L53.4958 46.4215C51.2215 36.4913 58.913 27.5365 69.2533 27.2946C69.5028 27.2895 69.7499 27.2895 69.9995 27.2895C70.2414 27.2895 70.491 27.2895 70.7457 27.2946C81.0783 27.5366 88.7775 36.4913 86.498 46.4215L86.1874 47.7943L87.4481 48.5584C87.9768 48.9557 88.3383 49.536 88.4617 50.1858C88.6949 50.7824 88.815 51.4173 88.8157 52.0578C88.8151 52.9901 88.5795 53.9072 88.1306 54.7244C87.7515 55.652 87.1048 56.4458 86.2729 57.0046C85.4411 57.5634 84.4617 57.8619 83.4596 57.8621H83.0852L83.0114 58.346C82.4815 61.646 80.7068 64.6174 78.0526 66.6488L77.6732 66.934V71.4496C77.6732 71.4496 91.3447 76.0365 97.5769 79.1437C98.5113 79.6111 99.3228 80.2916 99.9457 81.1305C100.569 81.9693 100.986 82.9428 101.163 83.9725C101.904 89.5229 102.323 95.1116 102.416 100.711L37.5754 100.71Z" fill="white"/>
</svg>
