<svg width="461" height="461" viewBox="0 0 461 461" fill="none" xmlns="http://www.w3.org/2000/svg">
<g clip-path="url(#clip0_574_23)">
<path d="M230.148 120.939L65.9853 256.274C65.9853 256.465 65.9373 256.746 65.8413 257.129C65.7473 257.509 65.6973 257.785 65.6973 257.981V395.022C65.6973 399.97 67.5063 404.258 71.1233 407.869C74.7393 411.482 79.0213 413.3 83.9703 413.3H193.6V303.664H266.697V413.304H376.326C381.274 413.304 385.562 411.49 389.173 407.869C392.79 404.262 394.605 399.971 394.605 395.022V257.981C394.605 257.221 394.501 256.647 394.317 256.274L230.148 120.939Z" fill="white"/>
<path d="M457.122 225.438L394.6 173.476V56.9889C394.6 54.3259 393.744 52.1359 392.026 50.4219C390.322 48.7099 388.132 47.8539 385.463 47.8539H330.647C327.981 47.8539 325.792 48.7099 324.077 50.4219C322.366 52.1359 321.511 54.3269 321.511 56.9889V112.662L251.849 54.4169C245.765 49.4679 238.531 46.9939 230.155 46.9939C221.78 46.9939 214.547 49.4679 208.457 54.4169L3.17158 225.438C1.26858 226.958 0.225581 229.004 0.0315809 231.574C-0.161419 234.142 0.503581 236.385 2.02858 238.287L19.7296 259.415C21.2546 261.127 23.2506 262.174 25.7256 262.557C28.0106 262.749 30.2956 262.081 32.5806 260.559L230.149 95.8169L427.719 260.558C429.245 261.886 431.24 262.549 433.715 262.549H434.573C437.044 262.173 439.036 261.119 440.569 259.411L458.272 238.286C459.794 236.38 460.461 234.141 460.263 231.57C460.068 229.007 459.021 226.961 457.122 225.438Z" fill="white"/>
</g>
<defs>
<clipPath id="clip0_574_23">
<rect width="460.298" height="460.297" fill="white"/>
</clipPath>
</defs>
</svg>
