<svg width="128" height="128" viewBox="0 0 128 128" fill="none" xmlns="http://www.w3.org/2000/svg">
<path d="M33.9585 58.3508C33.0926 59.2508 32.5872 60.4374 32.5381 61.6853C32.4891 62.9333 32.8998 64.1559 33.6924 65.1211C33.8784 65.3678 34.116 65.5709 34.3887 65.7161C34.6614 65.8613 34.9626 65.9451 35.2711 65.9617C35.5796 65.9783 35.888 65.9272 36.1747 65.8121C36.4614 65.697 36.7194 65.5205 36.9308 65.2952C37.7976 64.4395 38.3387 63.3083 38.4608 62.0965C38.583 60.8846 38.2785 59.6682 37.5998 58.6568C37.4235 58.3421 37.1728 58.0755 36.8695 57.8803C36.5663 57.6851 36.2198 57.5672 35.8604 57.537C35.501 57.5068 35.1397 57.5652 34.8081 57.7071C34.4766 57.849 34.1848 58.07 33.9585 58.3508Z" fill="white"/>
<path d="M55.8718 72.15C54.9899 73.0364 54.4568 74.2108 54.37 75.4583C54.2832 76.7057 54.6486 77.9426 55.3993 78.9426C55.5899 79.2049 55.8356 79.4221 56.1193 79.5791C56.4029 79.7361 56.7175 79.8291 57.041 79.8514C57.3644 79.8736 57.6888 79.8248 57.9913 79.7081C58.2938 79.5915 58.5671 79.41 58.7918 79.1764C59.635 78.3376 60.1635 77.234 60.2885 76.0513C60.4135 74.8685 60.1274 73.6788 59.4783 72.6823C59.3207 72.3597 59.087 72.0804 58.7972 71.8685C58.5074 71.6566 58.1704 71.5185 57.8153 71.4661C57.4602 71.4137 57.0976 71.4485 56.759 71.5677C56.4204 71.6869 56.1159 71.8867 55.8718 72.15Z" fill="white"/>
<path d="M118.933 39.6942L118.709 39.4704C113.739 34.7851 107.923 31.088 101.572 28.5764C100.303 28.054 99.0349 27.5815 97.7913 27.1338V27.0591C97.7566 24.405 96.6867 21.8693 94.8098 19.9923C92.9328 18.1153 90.3971 17.0455 87.743 17.0107L60.7566 16.6376C58.9893 16.6096 57.2345 16.9388 55.5976 17.6056C53.9606 18.2723 52.4753 19.2628 51.2305 20.5177L6.16198 65.5614C4.41808 67.3066 3.43848 69.6729 3.43848 72.1401C3.43848 74.6073 4.41808 76.9735 6.16198 78.7188L36.1082 108.64C37.8534 110.384 40.2197 111.364 42.6869 111.364C45.1541 111.364 47.5204 110.384 49.2656 108.64L94.3092 63.5965C95.5833 62.3204 96.5821 60.7967 97.2442 59.1194C101.406 60.3414 105.716 60.9858 110.053 61.0346C119.654 60.9849 122.838 56.7815 123.882 54.2694C124.927 51.7821 125.673 46.559 118.933 39.6942ZM30.3925 66.8249C29.33 65.2028 28.8224 63.2798 28.9457 61.3447C29.069 59.4095 29.8167 57.5666 31.0765 56.0925C31.6298 55.4086 32.3299 54.858 33.125 54.4816C33.92 54.1052 34.7896 53.9126 35.6693 53.9181C36.5489 53.9236 37.4161 54.127 38.2064 54.5133C38.9967 54.8997 39.6898 55.4589 40.2345 56.1497C40.9538 57.0581 41.4848 58.1008 41.7965 59.2168C42.1083 60.3327 42.1946 61.4996 42.0503 62.6493C41.906 63.799 41.5341 64.9084 40.9563 65.9127C40.3785 66.9171 39.6064 67.7962 38.685 68.4988C38.0368 68.9522 37.3033 69.2693 36.529 69.4308C35.7546 69.5923 34.9555 69.5949 34.1801 69.4384C33.4048 69.2818 32.6692 68.9695 32.0182 68.5203C31.3671 68.071 30.814 67.4942 30.3925 66.8249ZM40.5454 81.7309C39.7992 82.9222 39.5107 82.9894 38.3144 82.2557C36.4092 81.0668 36.3992 81.0593 37.5657 79.1939C42.5103 71.3044 47.4599 63.4157 52.4145 55.5279C53.0437 54.5206 53.3945 54.4509 54.3843 55.0528C54.8718 55.3364 55.3394 55.6249 55.7822 55.901C55.9678 56.1356 56.0632 56.4291 56.0508 56.728C56.0385 57.027 55.9194 57.3116 55.715 57.5301C53.9391 60.3655 52.1591 63.2043 50.3749 66.0464C47.0943 71.272 43.8177 76.5002 40.5454 81.7309ZM60.5004 82.4049C59.3158 83.2579 57.8481 83.622 56.4021 83.4215C54.9562 83.2209 53.643 82.4712 52.7353 81.3279C49.4546 77.5871 50.345 71.2049 54.4788 68.6679C55.6047 67.9674 56.9405 67.6833 58.254 67.8651C59.5675 68.0468 60.7759 68.6829 61.6694 69.6628C62.4776 70.5538 63.0919 71.6031 63.4733 72.744C63.8547 73.885 63.9949 75.0927 63.885 76.2907C63.7751 77.4887 63.4175 78.6507 62.8348 79.7032C62.2522 80.7557 61.4572 81.6757 60.5004 82.4049ZM116.595 51.235C115.749 53.2496 106.671 55.0404 92.8915 49.295C89.0446 47.7122 85.3966 45.6837 82.0223 43.251C81.9228 43.3753 81.7985 43.4997 81.699 43.6241C80.4051 44.9031 78.6981 45.6797 76.8838 45.8149C75.0695 45.9501 73.2663 45.435 71.7971 44.3618C70.328 43.2887 69.2888 41.7276 68.8657 39.9581C68.4427 38.1886 68.6633 36.3263 69.4882 34.7047C70.3131 33.083 71.6883 31.808 73.3676 31.1079C75.0468 30.4078 76.9205 30.3284 78.653 30.8838C80.3855 31.4393 81.8637 32.5933 82.8228 34.1393C83.782 35.6853 84.1595 37.5222 83.8878 39.3212C87.0978 41.5551 90.5423 43.4317 94.16 44.9174C95.5031 45.4646 96.7964 45.962 98.0401 46.3849L97.8908 35.5406C98.1147 35.64 98.3137 35.7147 98.5375 35.8142C103.932 37.9518 108.882 41.0722 113.138 45.0169L113.287 45.1661C116.52 48.4741 116.868 50.5883 116.595 51.235Z" fill="white"/>
</svg>
