<svg width="211" height="211" viewBox="0 0 211 211" fill="none" xmlns="http://www.w3.org/2000/svg">
<g clip-path="url(#clip0_589_20)">
<path d="M4.648 183.972L27.0273 206.351L206.361 27.0173L183.982 4.638L4.648 183.972Z" fill="white"/>
<path d="M161.351 211C133.978 211 111.709 188.729 111.709 161.356C111.709 133.983 133.978 111.71 161.351 111.71C188.726 111.71 210.995 133.981 210.995 161.354C210.995 188.727 188.724 211 161.351 211ZM161.351 143.36C151.43 143.36 143.359 151.432 143.359 161.354C143.359 171.275 151.43 179.35 161.351 179.35C171.272 179.35 179.345 171.277 179.345 161.356C179.345 151.434 171.272 143.36 161.351 143.36Z" fill="white"/>
<path d="M49.6479 99.288C22.2726 99.288 0.00390625 77.0168 0.00390625 49.644C0.00390625 22.2712 22.2746 0 49.6479 0C77.0212 0 99.2899 22.2712 99.2899 49.642C99.2919 77.0173 77.0207 99.288 49.6479 99.288ZM49.6479 31.65C39.7266 31.65 31.6539 39.7207 31.6539 49.642C31.6539 59.5653 39.7266 67.636 49.6479 67.636C59.5692 67.636 67.6399 59.5653 67.6399 49.642C67.6419 39.7207 59.5692 31.65 49.6479 31.65Z" fill="white"/>
</g>
<defs>
<clipPath id="clip0_589_20">
<rect width="211" height="211" fill="white"/>
</clipPath>
</defs>
</svg>
