<svg width="512" height="512" viewBox="0 0 512 512" fill="none" xmlns="http://www.w3.org/2000/svg">
<g clip-path="url(#clip0_589_2)">
<path d="M385.261 311.475C382.79 303.108 379.792 295.826 376.271 289.642C372.752 283.452 367.712 277.414 361.141 271.508C354.578 265.605 348.674 260.851 343.439 257.237C338.207 253.62 331.02 249.576 321.882 245.1C312.752 240.625 305.518 237.295 300.193 235.105C294.861 232.918 287.148 229.92 277.059 226.113C268.114 222.689 261.454 220.071 257.072 218.264C252.695 216.455 246.939 213.887 239.801 210.554C232.666 207.226 227.336 204.274 223.814 201.706C220.293 199.138 216.535 195.998 212.537 192.287C208.539 188.576 205.732 184.626 204.113 180.439C202.498 176.251 201.688 171.682 201.688 166.733C201.688 153.793 207.396 143.226 218.816 135.044C230.237 126.862 244.99 122.769 263.073 122.769C271.063 122.769 279.209 123.862 287.483 126.053C295.757 128.244 302.848 130.712 308.749 133.474C314.655 136.236 320.22 139.282 325.456 142.611C330.691 145.943 334.401 148.463 336.592 150.176C338.781 151.89 340.168 153.031 340.733 153.603C343.211 155.506 345.774 156.171 348.439 155.602C351.293 155.412 353.484 153.887 355.01 151.035L378.14 109.351C380.423 105.546 379.951 101.929 376.713 98.501C375.569 97.359 374.147 96.028 372.422 94.504C370.714 92.98 367.001 90.221 361.286 86.222C355.577 82.226 349.534 78.657 343.162 75.516C336.783 72.378 328.501 69.188 318.317 65.954C308.139 62.715 297.62 60.528 286.768 59.387V9.136C286.768 6.473 285.913 4.283 284.205 2.569C282.493 0.859 280.303 0 277.634 0H239.088C236.614 0 234.473 0.903 232.665 2.712C230.857 4.521 229.953 6.661 229.953 9.136V60.527C200.069 66.235 175.801 78.988 157.148 98.783C138.497 118.579 129.168 141.606 129.168 167.875C129.168 175.678 129.98 183.101 131.598 190.14C133.214 197.185 135.214 203.514 137.594 209.128C139.972 214.746 143.352 220.264 147.729 225.69C152.106 231.114 156.247 235.778 160.148 239.678C164.051 243.577 169.143 247.623 175.422 251.809C181.705 255.999 187.082 259.38 191.556 261.948C196.031 264.508 201.978 267.468 209.399 270.791C216.822 274.124 222.677 276.643 226.96 278.36C231.243 280.071 237.095 282.453 244.521 285.492C254.798 289.489 262.413 292.583 267.361 294.773C272.313 296.963 278.592 300.008 286.21 303.91C293.821 307.808 299.386 311.378 302.91 314.615C306.431 317.852 309.618 321.849 312.475 326.606C315.332 331.363 316.763 336.407 316.763 341.739C316.763 356.776 310.91 368.384 299.201 376.562C287.497 384.749 273.931 388.841 258.516 388.841C251.48 388.841 244.432 388.084 237.392 386.562C212.648 381.607 189.523 369.711 168.015 350.869L167.444 350.298C165.73 348.21 163.445 347.352 160.593 347.735C157.547 348.115 155.357 349.258 154.026 351.165L124.618 389.705C121.762 393.511 121.955 397.412 125.19 401.409C126.143 402.552 127.808 404.269 130.186 406.549C132.57 408.838 136.996 412.401 143.464 417.264C149.934 422.12 156.977 426.682 164.592 430.97C172.206 435.251 181.864 439.484 193.572 443.673C205.28 447.855 217.411 450.804 229.974 452.516V502.479C229.974 504.957 230.879 507.096 232.686 508.906C234.495 510.717 236.635 511.617 239.109 511.617H277.655C280.324 511.617 282.514 510.762 284.225 509.051C285.936 507.34 286.788 505.15 286.788 502.48V452.517C317.057 447.569 341.658 434.578 360.594 413.545C379.532 392.512 389.004 367.435 389.004 338.316C388.994 328.801 387.759 319.855 385.261 311.475Z" fill="white"/>
</g>
<defs>
<clipPath id="clip0_589_2">
<rect width="511.613" height="511.613" fill="white"/>
</clipPath>
</defs>
</svg>
