<svg width="26" height="26" viewBox="0 0 26 26" fill="none" xmlns="http://www.w3.org/2000/svg">
<path d="M16.7559 13.4203C17.8818 12.6232 18.7249 11.4886 19.1632 10.1807C19.6015 8.87268 19.6124 7.45914 19.1942 6.14459C18.7759 4.83003 17.9503 3.68262 16.8368 2.86836C15.7233 2.0541 14.3796 1.61523 13.0001 1.61523C11.6206 1.61523 10.2769 2.0541 9.16336 2.86836C8.04983 3.68262 7.22423 4.83003 6.806 6.14459C6.38778 7.45914 6.39862 8.87268 6.83696 10.1807C7.2753 11.4886 8.11841 12.6232 9.2443 13.4203C7.04871 14.0602 5.11957 15.3943 3.74594 17.2227C2.37232 19.0511 1.62817 21.2755 1.625 23.5624C1.625 23.7779 1.7106 23.9846 1.86298 24.1369C2.01535 24.2893 2.22201 24.3749 2.4375 24.3749H23.5625C23.778 24.3749 23.9847 24.2893 24.137 24.1369C24.2894 23.9846 24.375 23.7779 24.375 23.5624C24.3718 21.2755 23.6277 19.0512 22.2541 17.2228C20.8805 15.3943 18.9514 14.0602 16.7559 13.4203ZM8.125 8.1249C8.125 7.16072 8.41091 6.21818 8.94659 5.4165C9.48226 4.61481 10.2436 3.98996 11.1344 3.62099C12.0252 3.25201 13.0054 3.15547 13.9511 3.34357C14.8967 3.53167 15.7654 3.99597 16.4471 4.67775C17.1289 5.35954 17.5932 6.22818 17.7813 7.17383C17.9694 8.11949 17.8729 9.09969 17.5039 9.99048C17.1349 10.8813 16.5101 11.6426 15.7084 12.1783C14.9067 12.714 13.9642 12.9999 13 12.9999C11.7075 12.9984 10.4684 12.4843 9.55448 11.5704C8.64056 10.6565 8.12647 9.41738 8.125 8.1249ZM3.28656 22.7499C3.49189 20.5304 4.51812 18.4673 6.16439 16.9646C7.81067 15.4618 9.95849 14.6275 12.1875 14.6249H13.8125C16.0415 14.6275 18.1893 15.4618 19.8356 16.9646C21.4819 18.4673 22.5081 20.5304 22.7134 22.7499H3.28656Z" fill="black"/>
</svg>
