<svg width="512" height="512" viewBox="0 0 512 512" fill="none" xmlns="http://www.w3.org/2000/svg">
<path fill-rule="evenodd" clip-rule="evenodd" d="M128 32C74.9807 32 32 74.9807 32 128V384C32 437.019 74.9807 480 128 480H384C437.019 480 480 437.019 480 384V128C480 74.9807 437.019 32 384 32H128ZM155.761 124.911C154.056 113.998 143.827 106.534 132.913 108.239C122 109.944 114.535 120.173 116.241 131.087L156.241 387.086C157.665 396.203 165.141 403.161 174.335 403.929C183.53 404.698 192.057 399.077 194.975 390.324L256.001 207.245L317.027 390.324C319.945 399.077 328.472 404.698 337.667 403.929C346.861 403.161 354.337 396.203 355.761 387.086L395.761 131.087C397.466 120.173 390.002 109.944 379.088 108.239C368.175 106.534 357.946 113.998 356.241 124.911L328.947 299.591L274.975 137.674C272.252 129.508 264.61 123.999 256.001 123.999C247.392 123.999 239.75 129.508 237.027 137.674L183.055 299.591L155.761 124.911Z" fill="white"/>
</svg>
