<svg width="64" height="64" viewBox="0 0 64 64" fill="none" xmlns="http://www.w3.org/2000/svg">
<path d="M49.9303 56.9999H44.8503L40.7303 46.9999C40.6553 46.8173 40.5279 46.6609 40.3642 46.5506C40.2005 46.4403 40.0077 46.3809 39.8103 46.3799H24.4403C24.2429 46.3809 24.0502 46.4403 23.8865 46.5506C23.7227 46.6609 23.5953 46.8173 23.5203 46.9999L19.4003 56.9999H14.0703C13.8051 56.9999 13.5507 57.1052 13.3632 57.2928C13.1757 57.4803 13.0703 57.7347 13.0703 57.9999C13.0703 58.2651 13.1757 58.5195 13.3632 58.707C13.5507 58.8945 13.8051 58.9999 14.0703 58.9999H49.9303C50.1955 58.9999 50.4499 58.8945 50.6374 58.707C50.825 58.5195 50.9303 58.2651 50.9303 57.9999C50.9303 57.7347 50.825 57.4803 50.6374 57.2928C50.4499 57.1052 50.1955 56.9999 49.9303 56.9999ZM25.1103 48.3499H39.1103L42.5903 56.8299C41.8558 56.6398 41.1685 56.3001 40.5714 55.8321C39.9743 55.364 39.4803 54.7777 39.1203 54.1099C38.4207 52.8242 37.3873 51.7509 36.129 51.003C34.8707 50.2552 33.4341 49.8605 31.9703 49.8605C30.5066 49.8605 29.0699 50.2552 27.8116 51.003C26.5533 51.7509 25.5199 52.8242 24.8203 54.1099C24.139 55.3698 22.9954 56.3162 21.6303 56.7499L25.1103 48.3499ZM25.1103 56.9999C25.7216 56.4438 26.2383 55.7919 26.6403 55.0699C27.1663 54.0989 27.9448 53.288 28.8935 52.723C29.8423 52.1579 30.926 51.8596 32.0303 51.8596C33.1346 51.8596 34.2184 52.1579 35.1671 52.723C36.1159 53.288 36.8943 54.0989 37.4203 55.0699C37.8132 55.7897 38.3197 56.4415 38.9203 56.9999H25.1103Z" fill="white"/>
<path d="M18.1098 36.5695C19.8627 38.5276 22.0098 40.0929 24.4102 41.1628C26.8107 42.2326 29.4102 42.7827 32.0383 42.777C34.6663 42.7714 37.2635 42.21 39.6593 41.1299C42.0551 40.0497 44.1954 38.4752 45.9398 36.5095C46.0273 36.4135 46.0952 36.3015 46.1398 36.1795C46.2002 35.9943 46.2002 35.7947 46.1398 35.6095C45.5527 33.1679 44.3419 30.9204 42.6258 29.087C40.9098 27.2535 38.7473 25.8968 36.3498 25.1495C37.7916 24.2062 38.8902 22.8227 39.4824 21.2048C40.0746 19.5868 40.1286 17.821 39.6365 16.1699C39.1443 14.5187 38.1323 13.0706 36.7509 12.041C35.3696 11.0113 33.6927 10.4551 31.9698 10.4551C30.2469 10.4551 28.5701 11.0113 27.1887 12.041C25.8073 13.0706 24.7953 14.5187 24.3032 16.1699C23.811 17.821 23.865 19.5868 24.4572 21.2048C25.0494 22.8227 26.1481 24.2062 27.5898 25.1495C25.2091 25.8907 23.0599 27.2337 21.3501 29.0486C19.6403 30.8635 18.4278 33.0889 17.8298 35.5095C17.7651 35.7009 17.7651 35.9082 17.8298 36.0995C17.8804 36.278 17.977 36.4401 18.1098 36.5695ZM26.0498 18.5695C26.0399 17.3808 26.3834 16.2158 27.0366 15.2226C27.6899 14.2293 28.6234 13.4525 29.7189 12.9907C30.8143 12.5289 32.0223 12.4029 33.1894 12.6288C34.3566 12.8546 35.4303 13.4221 36.2745 14.2592C37.1186 15.0963 37.695 16.1652 37.9306 17.3305C38.1662 18.4957 38.0503 19.7047 37.5977 20.8039C37.1451 21.9032 36.3761 22.8432 35.3884 23.5048C34.4006 24.1663 33.2386 24.5195 32.0498 24.5195H31.9998C30.4172 24.5063 28.9039 23.8684 27.7895 22.7446C26.675 21.6208 26.0498 20.1022 26.0498 18.5195V18.5695ZM31.9698 26.5695H31.9998C34.726 26.5693 37.3779 27.4574 39.5541 29.0995C41.7302 30.7415 43.312 33.048 44.0598 35.6695C42.5054 37.3153 40.6314 38.6264 38.5525 39.5225C36.4736 40.4185 34.2336 40.8807 31.9698 40.8807C29.706 40.8807 27.4661 40.4185 25.3872 39.5225C23.3083 38.6264 21.4342 37.3153 19.8798 35.6695C20.6106 33.0186 22.1931 30.6817 24.3834 29.0191C26.5737 27.3565 29.25 26.4606 31.9998 26.4695L31.9698 26.5695Z" fill="white"/>
<path d="M56 48.35H8C7.34339 48.35 6.69321 48.2207 6.08658 47.9694C5.47995 47.7181 4.92876 47.3498 4.46447 46.8855C4.00017 46.4212 3.63188 45.87 3.3806 45.2634C3.12933 44.6568 3 44.0066 3 43.35V10C3 8.67392 3.52678 7.40215 4.46447 6.46447C5.40215 5.52678 6.67392 5 8 5H56C57.3261 5 58.5979 5.52678 59.5355 6.46447C60.4732 7.40215 61 8.67392 61 10V43.35C61 44.0066 60.8707 44.6568 60.6194 45.2634C60.3681 45.87 59.9998 46.4212 59.5355 46.8855C59.0712 47.3498 58.52 47.7181 57.9134 47.9694C57.3068 48.2207 56.6566 48.35 56 48.35ZM8 7C7.20435 7 6.44129 7.31607 5.87868 7.87868C5.31607 8.44129 5 9.20435 5 10V43.35C5 44.1456 5.31607 44.9087 5.87868 45.4713C6.44129 46.0339 7.20435 46.35 8 46.35H56C56.7956 46.35 57.5587 46.0339 58.1213 45.4713C58.6839 44.9087 59 44.1456 59 43.35V10C59 9.20435 58.6839 8.44129 58.1213 7.87868C57.5587 7.31607 56.7956 7 56 7H8Z" fill="white"/>
</svg>
